<svg width="30" height="30" viewBox="0 0 30 30" fill="none" xmlns="http://www.w3.org/2000/svg">
<path d="M10.6458 29.1667L10.0625 24.5C9.74653 24.3785 9.44878 24.2326 9.16927 24.0625C8.88976 23.8924 8.61632 23.7101 8.34896 23.5156L4.01042 25.3385L0 18.4115L3.75521 15.5677C3.7309 15.3976 3.71875 15.2335 3.71875 15.0755V14.0911C3.71875 13.9332 3.7309 13.7691 3.75521 13.599L0 10.7552L4.01042 3.82812L8.34896 5.65104C8.61632 5.4566 8.89583 5.27431 9.1875 5.10417C9.47917 4.93403 9.77083 4.78819 10.0625 4.66667L10.6458 0H18.6667L19.25 4.66667C19.566 4.78819 19.8637 4.93403 20.1432 5.10417C20.4227 5.27431 20.6962 5.4566 20.9635 5.65104L25.3021 3.82812L29.3125 10.7552L25.5573 13.599C25.5816 13.7691 25.5938 13.9332 25.5938 14.0911V15.0755C25.5938 15.2335 25.5694 15.3976 25.5208 15.5677L29.276 18.4115L25.2656 25.3385L20.9635 23.5156C20.6962 23.7101 20.4167 23.8924 20.125 24.0625C19.8333 24.2326 19.5417 24.3785 19.25 24.5L18.6667 29.1667H10.6458ZM14.7292 19.6875C16.1389 19.6875 17.342 19.1892 18.3385 18.1927C19.3351 17.1962 19.8333 15.9931 19.8333 14.5833C19.8333 13.1736 19.3351 11.9705 18.3385 10.974C17.342 9.97743 16.1389 9.47917 14.7292 9.47917C13.2951 9.47917 12.0859 9.97743 11.1016 10.974C10.1172 11.9705 9.625 13.1736 9.625 14.5833C9.625 15.9931 10.1172 17.1962 11.1016 18.1927C12.0859 19.1892 13.2951 19.6875 14.7292 19.6875Z" fill="#358ADB"/>
</svg>
