<svg width="38" height="38" viewBox="0 0 38 38" fill="none" xmlns="http://www.w3.org/2000/svg">
<circle cx="19" cy="19" r="17.5" fill="black" fill-opacity="0.87" stroke="#FF0000" stroke-width="3"/>
<path d="M10.9506 17.2646C10.9137 16.8922 10.7552 16.6029 10.4751 16.3967C10.1951 16.1905 9.81499 16.0874 9.33487 16.0874C9.00864 16.0874 8.73319 16.1335 8.50852 16.2259C8.28385 16.3151 8.11151 16.4397 7.99148 16.5998C7.87453 16.7598 7.81605 16.9414 7.81605 17.1445C7.8099 17.3138 7.84529 17.4615 7.92223 17.5877C8.00225 17.7139 8.11151 17.8232 8.25 17.9155C8.38849 18.0047 8.54853 18.0832 8.73011 18.1509C8.9117 18.2156 9.10559 18.271 9.31179 18.3171L10.1612 18.5202C10.5736 18.6126 10.9522 18.7357 11.2969 18.8896C11.6416 19.0434 11.9401 19.2327 12.1925 19.4574C12.4448 19.6821 12.6403 19.9467 12.7788 20.2514C12.9203 20.5561 12.9927 20.9054 12.9957 21.2994C12.9927 21.878 12.8449 22.3796 12.5526 22.8043C12.2633 23.226 11.8447 23.5537 11.2969 23.7876C10.7521 24.0185 10.0951 24.1339 9.32564 24.1339C8.56238 24.1339 7.89761 24.0169 7.33132 23.783C6.76811 23.5491 6.32801 23.2029 6.01101 22.7443C5.69709 22.2827 5.53243 21.7118 5.51705 21.0316H7.45135C7.47289 21.3486 7.56368 21.6133 7.72372 21.8256C7.88684 22.0349 8.10381 22.1934 8.37464 22.3011C8.64856 22.4058 8.95786 22.4581 9.30256 22.4581C9.6411 22.4581 9.93501 22.4089 10.1843 22.3104C10.4367 22.2119 10.6321 22.0749 10.7706 21.8995C10.9091 21.7241 10.9783 21.5225 10.9783 21.2947C10.9783 21.0824 10.9152 20.9039 10.7891 20.7592C10.666 20.6146 10.4844 20.4915 10.2443 20.3899C10.0073 20.2884 9.7165 20.196 9.3718 20.1129L8.34233 19.8544C7.54522 19.6605 6.91584 19.3574 6.45419 18.945C5.99254 18.5326 5.76326 17.977 5.76634 17.2784C5.76326 16.706 5.9156 16.2058 6.22337 15.7781C6.53421 15.3503 6.96046 15.0163 7.50213 14.7763C8.0438 14.5362 8.65933 14.4162 9.34872 14.4162C10.0504 14.4162 10.6629 14.5362 11.1861 14.7763C11.7124 15.0163 12.1217 15.3503 12.4141 15.7781C12.7064 16.2058 12.8572 16.7013 12.8665 17.2646H10.9506ZM23.0285 19.2727C23.0285 20.3037 22.8331 21.1809 22.4422 21.9041C22.0544 22.6274 21.5251 23.1798 20.8541 23.5614C20.1863 23.94 19.4353 24.1293 18.6013 24.1293C17.7611 24.1293 17.0071 23.9384 16.3392 23.5568C15.6714 23.1752 15.1436 22.6228 14.7558 21.8995C14.368 21.1763 14.1741 20.3007 14.1741 19.2727C14.1741 18.2417 14.368 17.3646 14.7558 16.6413C15.1436 15.9181 15.6714 15.3672 16.3392 14.9886C17.0071 14.607 17.7611 14.4162 18.6013 14.4162C19.4353 14.4162 20.1863 14.607 20.8541 14.9886C21.5251 15.3672 22.0544 15.9181 22.4422 16.6413C22.8331 17.3646 23.0285 18.2417 23.0285 19.2727ZM21.0019 19.2727C21.0019 18.6049 20.9018 18.0417 20.7018 17.5831C20.5048 17.1245 20.2263 16.7768 19.8662 16.5398C19.5061 16.3028 19.0845 16.1843 18.6013 16.1843C18.1181 16.1843 17.6965 16.3028 17.3364 16.5398C16.9763 16.7768 16.6962 17.1245 16.4962 17.5831C16.2992 18.0417 16.2007 18.6049 16.2007 19.2727C16.2007 19.9406 16.2992 20.5038 16.4962 20.9624C16.6962 21.4209 16.9763 21.7687 17.3364 22.0057C17.6965 22.2427 18.1181 22.3612 18.6013 22.3612C19.0845 22.3612 19.5061 22.2427 19.8662 22.0057C20.2263 21.7687 20.5048 21.4209 20.7018 20.9624C20.9018 20.5038 21.0019 19.9406 21.0019 19.2727ZM29.6381 17.2646C29.6012 16.8922 29.4427 16.6029 29.1626 16.3967C28.8826 16.1905 28.5025 16.0874 28.0224 16.0874C27.6961 16.0874 27.4207 16.1335 27.196 16.2259C26.9714 16.3151 26.799 16.4397 26.679 16.5998C26.562 16.7598 26.5036 16.9414 26.5036 17.1445C26.4974 17.3138 26.5328 17.4615 26.6097 17.5877C26.6897 17.7139 26.799 17.8232 26.9375 17.9155C27.076 18.0047 27.236 18.0832 27.4176 18.1509C27.5992 18.2156 27.7931 18.271 27.9993 18.3171L28.8487 18.5202C29.2611 18.6126 29.6397 18.7357 29.9844 18.8896C30.3291 19.0434 30.6276 19.2327 30.88 19.4574C31.1323 19.6821 31.3278 19.9467 31.4663 20.2514C31.6078 20.5561 31.6802 20.9054 31.6832 21.2994C31.6802 21.878 31.5324 22.3796 31.2401 22.8043C30.9508 23.226 30.5322 23.5537 29.9844 23.7876C29.4396 24.0185 28.7826 24.1339 28.0131 24.1339C27.2499 24.1339 26.5851 24.0169 26.0188 23.783C25.4556 23.5491 25.0155 23.2029 24.6985 22.7443C24.3846 22.2827 24.2199 21.7118 24.2045 21.0316H26.1388C26.1604 21.3486 26.2512 21.6133 26.4112 21.8256C26.5743 22.0349 26.7913 22.1934 27.0621 22.3011C27.3361 22.4058 27.6454 22.4581 27.9901 22.4581C28.3286 22.4581 28.6225 22.4089 28.8718 22.3104C29.1242 22.2119 29.3196 22.0749 29.4581 21.8995C29.5966 21.7241 29.6658 21.5225 29.6658 21.2947C29.6658 21.0824 29.6027 20.9039 29.4766 20.7592C29.3535 20.6146 29.1719 20.4915 28.9318 20.3899C28.6948 20.2884 28.404 20.196 28.0593 20.1129L27.0298 19.8544C26.2327 19.6605 25.6033 19.3574 25.1417 18.945C24.68 18.5326 24.4508 17.977 24.4538 17.2784C24.4508 16.706 24.6031 16.2058 24.9109 15.7781C25.2217 15.3503 25.648 15.0163 26.1896 14.7763C26.7313 14.5362 27.3468 14.4162 28.0362 14.4162C28.7379 14.4162 29.3504 14.5362 29.8736 14.7763C30.3999 15.0163 30.8092 15.3503 31.1016 15.7781C31.3939 16.2058 31.5447 16.7013 31.554 17.2646H29.6381Z" fill="#FF0000"/>
</svg>
